# xmcd
#
# Track frame offsets: 
#        150
#        9594
#        22282
#        38441
#        50022
#        59885
#        73331
#        88960
#        102878
#        115939
#        133560
#        145776
#        160250
#        172518
#        185814
#        197203
#        209891
#        223670
#        234468
#        246817
#        257445
#        268921
#        280125
#        293693
#        309137
#
# Disc length: 4275 seconds
#
# Revision: 0
# Processed by: cddbd v1.5.2PL0 Copyright (c) Steve Scherf et al.
# Submitted via: ExactAudioCopyFreeDBPlugin 1.0
#
DISCID=8210b119
DTITLE=Big Tom and The Mainliners - 25 Golden Greats
DYEAR=1900
DGENRE=
TTITLE0=Back In My Baby's Arms
TTITLE1=Gentle Mother
TTITLE2=The Old Rustic Bridge
TTITLE3=I'll Settle For Old Ireland
TTITLE4=The Wheels Fell Off The Wagon
TTITLE5=The Isle Of Innisfree
TTITLE6=My Own Washing
TTITLE7=The Kentucky Waltz
TTITLE8=Be Careful Of Stones That You Throw
TTITLE9=A Bunch Of Violets Blue
TTITLE10=From Summer To Winter
TTITLE11=Sing Me Back Home
TTITLE12=The Carroll County Accident
TTITLE13=Blue Eyes Crying In The Rain
TTITLE14=The Sunset Years Of Life
TTITLE15=Wedding Bells
TTITLE16=Glowers For Mama
TTITLE17=My World'scome Down
TTITLE18=An Old  Log Cabin For Sale
TTITLE19=Please Mama Please
TTITLE20=Before I Met You
TTITLE21=Tears On A Bridal Bouquet
TTITLE22=They Covered The Old Swimming Pool
TTITLE23=The Cold Hard Facts Of Life
TTITLE24=Give My Love To Rose
EXTD=
EXTT0=
EXTT1=
EXTT2=
EXTT3=
EXTT4=
EXTT5=
EXTT6=
EXTT7=
EXTT8=
EXTT9=
EXTT10=
EXTT11=
EXTT12=
EXTT13=
EXTT14=
EXTT15=
EXTT16=
EXTT17=
EXTT18=
EXTT19=
EXTT20=
EXTT21=
EXTT22=
EXTT23=
EXTT24=
PLAYORDER=
